<?xml version="1.0" encoding="UTF-8" standalone="no"?>


<svg
   width="211.66713mm"
   height="195.13011mm"
   viewBox="0 0 211.66713 195.13011"
   version="1.1"
   id="svg1"
   xml:space="preserve"
   
   
   
   
   xmlns="http://www.w3.org/2000/svg"
   ><defs
     id="defs1" /><g
     
     
     id="layer1"
     transform="translate(0.98854934,-50.934943)"><g
       id="g1"
       transform="matrix(0.41341146,0,0,0.41341146,-0.98849676,42.666617)"
       style="fill:#ff5733;fill-opacity:1">&#10;	<path
   class="st0"
   d="M 446.025,92.206 C 405.263,49.812 348.538,22.564 285.642,20.024 269.851,19.386 256.528,31.672 255.89,47.457 c -0.638,15.791 11.648,29.114 27.426,29.76 47.715,1.943 90.45,22.481 121.479,54.681 30.987,32.235 49.956,75.765 49.971,124.011 -0.015,49.481 -19.977,94.011 -52.383,126.474 -32.462,32.413 -76.999,52.368 -126.472,52.382 -49.474,-0.015 -94.025,-19.97 -126.474,-52.382 -32.405,-32.463 -52.368,-76.992 -52.382,-126.474 0,-3.483 0.106,-6.938 0.302,-10.364 l 34.091,16.827 c 3.702,1.824 8.002,1.852 11.35,0.086 3.362,-1.788 5.349,-5.137 5.264,-8.896 L 144.7,103.728 c -0.114,-4.285 -2.88,-8.357 -7.094,-10.464 -4.242,-2.071 -9.166,-1.809 -12.613,0.738 L 4.008,182.45 c -3.05,2.221 -4.498,5.831 -3.86,9.577 0.61,3.759 3.249,7.143 6.966,8.974 l 35.722,17.629 c -1.937,12.166 -3.018,24.602 -3.018,37.279 -0.014,65.102 26.475,124.31 69.153,166.944 42.636,42.672 101.829,69.16 166.939,69.147 65.095,0.014 124.302,-26.475 166.937,-69.146 42.678,-42.635 69.167,-101.842 69.154,-166.944 0.013,-63.464 -25.157,-121.345 -65.976,-163.704 z"
   id="path1"
   style="fill:#ff5733;fill-opacity:1" />&#10;</g></g><style
     type="text/css"
     id="style1">&#10;	.st0{fill:#000000;}&#10;</style></svg>
