<?xml version="1.0" encoding="UTF-8" standalone="no"?>
<svg
   width="114.1mm"
   height="99.024139mm"
   viewBox="0 0 114.10001 99.02414"
   version="1.1"
   id="svg1"
   
   
   
   
   xmlns="http://www.w3.org/2000/svg"
   >
  
  <defs
     id="defs1" />
  <g
     id="layer1"
     transform="matrix(1,0,0,1.6189046,-46.302083,-176.47409)">
    <g
       id="g2"
       style="clip-rule:evenodd;fill-rule:evenodd;image-rendering:optimizeQuality;shape-rendering:geometricPrecision;text-rendering:geometricPrecision"
       transform="matrix(0.26458333,0,0,0.26458333,-39.286434,0.39687333)">
      <path
         style="opacity:1"
         fill="#fa8072"
         d="m 629.5,607.5 c -13.818,-10.303 -27.818,-20.47 -42,-30.5 -5.546,-2.94 -11.213,-5.606 -17,-8 -7.731,-1.397 -15.064,-0.397 -22,3 -5.006,4.526 -9.173,9.693 -12.5,15.5 -8.41,8.816 -18.577,11.483 -30.5,8 -2.693,-1.347 -5.36,-2.68 -8,-4 -21.763,-14.58 -43.43,-29.413 -65,-44.5 -33.115,-19.864 -63.281,-16.364 -90.5,10.5 -6.429,7.888 -12.595,15.888 -18.5,24 0,-57 0,-114 0,-171 144,0 288,0 432,0 0.167,57.668 0,115.334 -0.5,173 -33.105,53.654 -74.938,61.654 -125.5,24 z"
         id="path2" />
    </g>
    <g
       id="g3"
       style="clip-rule:evenodd;fill-rule:evenodd;image-rendering:optimizeQuality;shape-rendering:geometricPrecision;text-rendering:geometricPrecision"
       transform="matrix(0.26458333,0,0,0.26458333,-39.286434,0.39687333)">
      <path
         style="opacity:1"
         fill="#fba095"
         d="m 497.5,591.5 c -11.851,12.579 -24.851,23.746 -39,33.5 -31.838,18.162 -65.172,21.496 -100,10 -23.84,-9.842 -35.507,-27.675 -35,-53.5 5.905,-8.112 12.071,-16.112 18.5,-24 27.219,-26.864 57.385,-30.364 90.5,-10.5 21.57,15.087 43.237,29.92 65,44.5 z"
         id="path3" />
    </g>
    <g
       id="g4"
       style="clip-rule:evenodd;fill-rule:evenodd;image-rendering:optimizeQuality;shape-rendering:geometricPrecision;text-rendering:geometricPrecision"
       transform="matrix(0.26458333,0,0,0.26458333,-39.286434,0.39687333)">
      <path
         style="opacity:1"
         fill="#fba095"
         d="m 629.5,607.5 c -24.5,21.456 -51.834,25.956 -82,13.5 -15.229,-6.767 -29.229,-15.267 -42,-25.5 11.923,3.483 22.09,0.816 30.5,-8 3.327,-5.807 7.494,-10.974 12.5,-15.5 6.936,-3.397 14.269,-4.397 22,-3 5.787,2.394 11.454,5.06 17,8 14.182,10.03 28.182,20.197 42,30.5 z"
         id="path4" />
    </g>
  </g>
</svg>
