<?xml version="1.0" encoding="UTF-8" standalone="no"?>


<svg
   width="27.884687mm"
   height="32.513264mm"
   viewBox="0 0 27.884687 32.513264"
   version="1.1"
   id="svg1"
   xml:space="preserve"
   
   
   
   
   xmlns="http://www.w3.org/2000/svg"
   ><defs
     id="defs1" /><g
     
     
     id="layer1"
     transform="translate(-91.816415,-138.07079)"><path
       class="st0"
       d="m 118.66389,149.87332 c -0.11642,0.80963 -0.24871,1.64306 -0.36248,2.42623 l 0.13494,1.4949 c 0.43127,0.045 0.74877,0.29633 0.96837,0.68791 0.26459,0.4789 0.34132,1.18269 0.27252,1.95528 -0.0661,0.73024 -0.25929,1.53722 -0.54239,2.25954 -0.50006,1.28058 -1.29911,2.33627 -2.23308,2.45533 -0.10055,0.32808 -0.20109,0.66675 -0.29634,0.98954 -0.47889,1.61661 -0.8546,2.88661 -1.83621,4.13015 -1.09273,1.38377 -2.5056,2.4421 -4.0005,3.16177 -1.64306,0.7911 -3.39725,1.18004 -4.95564,1.14829 -1.46844,-0.0318 -3.14325,-0.44185 -4.72546,-1.20915 -1.441981,-0.6985 -2.817811,-1.69333 -3.902611,-2.96333 -1.2012,-1.40494 -1.70127,-2.89454 -2.3495,-4.83129 -0.0767,-0.23019 -0.1561,-0.46567 -0.23018,-0.68527 -0.82286,-0.0106 -1.51607,-0.70908 -2.00555,-1.68011 -0.381,-0.75406 -0.64558,-1.68275 -0.74347,-2.54264 -0.10055,-0.89958 -0.0159,-1.74625 0.30956,-2.28336 0.23019,-0.37835 0.55827,-0.61647 0.98954,-0.64823 l 0.13229,-1.33349 c -0.16933,-1.03188 -0.37042,-2.11667 -0.51858,-3.15384 -2.03994,-14.28221 28.252211,-15.73477 25.894771,0.62177 z m -16.129,15.77446 c -0.20108,-0.1614 -0.23283,-0.45244 -0.0741,-0.65352 0.16139,-0.20108 0.45244,-0.23283 0.65352,-0.0741 0.96573,0.77258 1.86796,1.15093 2.70933,1.14829 0.82021,-0.003 1.61131,-0.37836 2.37067,-1.11919 0.18521,-0.17992 0.47889,-0.17462 0.65881,0.008 0.17992,0.18521 0.17463,0.47889 -0.008,0.65881 -0.93662,0.91281 -1.94468,1.37848 -3.01889,1.38113 -1.05834,0.005 -2.15371,-0.44186 -3.29142,-1.34938 z m 1.86796,-2.9501 c -0.1905,-0.17463 -0.20373,-0.46832 -0.0317,-0.65882 0.17462,-0.1905 0.46831,-0.20373 0.65881,-0.0317 0.23813,0.21696 0.46302,0.32015 0.67204,0.32015 0.21167,-0.003 0.44186,-0.11377 0.68792,-0.32544 0.19579,-0.16933 0.48948,-0.14816 0.65617,0.0476 0.16933,0.19579 0.14816,0.48948 -0.0476,0.65616 -0.41275,0.35719 -0.84402,0.54769 -1.28852,0.55298 -0.45244,0.003 -0.88635,-0.17991 -1.30704,-0.56091 z m -2.86015,-4.05342 c 0.0106,0.0556 0.0185,0.11377 0.0185,0.17198 0,0.47096 -0.381,0.85196 -0.85196,0.85196 -0.47096,0 -0.851961,-0.381 -0.851961,-0.85196 0,-0.12171 0.0265,-0.23813 0.0714,-0.34396 -0.44185,0.0317 -0.8837,0.13229 -1.3282,0.30692 -0.21432,0.0847 -0.4498,-0.0476 -0.52388,-0.29104 -0.0741,-0.24342 0.0397,-0.51065 0.25665,-0.59532 0.64558,-0.254 1.29645,-0.37041 1.949981,-0.36512 0.64822,0.005 1.29381,0.12964 1.93675,0.36248 0.21695,0.0767 0.33602,0.34131 0.26722,0.58473 -0.0688,0.24606 -0.29897,0.381 -0.51593,0.30427 -0.14288,-0.0503 -0.28575,-0.0952 -0.42863,-0.13494 z m 8.37671,-0.0767 c -0.0106,0.0503 -0.0159,0.10319 -0.0159,0.15875 0,0.47096 0.381,0.85196 0.85195,0.85196 0.47096,0 0.85196,-0.381 0.85196,-0.85196 0,-0.10583 -0.0185,-0.20637 -0.0529,-0.29898 0.4392,0.0318 0.88106,0.12171 1.3282,0.26723 0.21961,0.0714 0.44715,-0.0741 0.508,-0.32279 0.0635,-0.24871 -0.0635,-0.508 -0.2831,-0.57944 -0.64558,-0.21166 -1.29381,-0.31485 -1.9394,-0.31485 -0.64293,0 -1.28322,0.10848 -1.91558,0.3175 -0.21696,0.0714 -0.34396,0.33073 -0.28046,0.57943 0.0635,0.24871 0.29104,0.39159 0.508,0.3175 0.14817,-0.045 0.29369,-0.0873 0.43921,-0.12435 z m 4.02961,-2.91835 c 0.19843,0.16404 0.22754,0.45773 0.0635,0.65616 -0.16405,0.19844 -0.45773,0.22755 -0.65617,0.0635 -0.64823,-0.53445 -1.97644,-0.29633 -3.11415,-0.09 -0.61383,0.11113 -1.18268,0.21167 -1.63777,0.1958 -0.25664,-0.008 -0.45773,-0.2249 -0.44979,-0.48154 0.008,-0.25665 0.2249,-0.45773 0.48154,-0.4498 0.35984,0.0132 0.87842,-0.0794 1.43934,-0.18256 1.33879,-0.24077 2.89454,-0.52123 3.8735,0.2884 z m -15.843261,0.80962 c -0.19843,0.16404 -0.49212,0.13494 -0.65616,-0.0635 -0.16404,-0.19844 -0.13494,-0.49212 0.0635,-0.65617 0.97896,-0.80697 2.534711,-0.52916 3.870851,-0.28839 0.56356,0.10054 1.08215,0.19314 1.43933,0.18256 0.25665,-0.008 0.47361,0.19315 0.48155,0.44979 0.008,0.25665 -0.19315,0.47361 -0.4498,0.48154 -0.45508,0.0159 -1.02129,-0.0847 -1.63777,-0.19579 -1.13506,-0.20637 -2.463271,-0.4445 -3.111501,0.09 z m -3.96345,0.46831 c 0.0767,-0.13229 0.24341,-0.17727 0.3757,-0.10054 0.1323,0.0767 0.17727,0.24342 0.10055,0.37571 -0.0926,0.15875 -0.14553,0.31486 -0.14817,0.46302 -0.003,0.14288 0.0397,0.28575 0.13758,0.43392 0.0847,0.12435 0.0529,0.29633 -0.0741,0.381 -0.12435,0.0847 -0.29633,0.0529 -0.381,-0.0741 -0.16933,-0.2487 -0.24077,-0.50006 -0.23283,-0.75406 0.008,-0.24606 0.0873,-0.48948 0.22225,-0.72496 z m 22.616581,0.27253 c -0.0767,-0.1323 -0.0291,-0.29898 0.10054,-0.37571 0.13229,-0.0767 0.29898,-0.0291 0.37571,0.10054 0.13494,0.23548 0.21696,0.47889 0.22225,0.72496 0.005,0.254 -0.0661,0.50535 -0.23283,0.75406 -0.0847,0.12435 -0.25665,0.15875 -0.381,0.0741 -0.12436,-0.0847 -0.15875,-0.25664 -0.0741,-0.381 0.10055,-0.14816 0.14288,-0.29104 0.13759,-0.43391 -0.003,-0.14817 -0.0582,-0.30163 -0.14817,-0.46302 z m 0.85725,-2.67759 -1.40758,0.87842 -0.57944,-3.95023 c -2.92894,1.82562 -6.27063,2.64054 -9.90865,2.7305 -3.48191,-0.0265 -6.823601,-0.78846 -9.932461,-2.74638 l -0.63235,3.82323 -1.24354,-0.6985 c -0.11113,0.12171 -0.28575,0.17992 -0.45509,0.13494 -0.23812,-0.0608 -0.39952,0.0159 -0.49741,0.17727 -0.21167,0.34925 -0.25929,0.98425 -0.17727,1.69598 0.0847,0.75406 0.31485,1.56898 0.64823,2.22515 0.381,0.75406 0.87312,1.28058 1.36525,1.14035 v 0 c 0.23548,-0.0661 0.48418,0.0608 0.5662,0.29633 0.14553,0.42069 0.254,0.74084 0.35719,1.0504 0.61648,1.83885 1.09009,3.25173 2.17488,4.51908 0.99748,1.16946 2.264831,2.08492 3.598331,2.7305 1.46579,0.70909 3.00038,1.09009 4.33917,1.11654 1.41552,0.0291 3.01889,-0.32808 4.53231,-1.05568 1.38113,-0.66411 2.67758,-1.63513 3.67771,-2.89984 0.86783,-1.09802 1.22237,-2.29393 1.67217,-3.81529 0.11641,-0.39158 0.23812,-0.80698 0.39687,-1.2991 0.0556,-0.24077 0.2884,-0.39952 0.53446,-0.35719 0.58737,0.10319 1.20385,-0.78052 1.62454,-1.86531 0.254,-0.64823 0.42598,-1.36261 0.48419,-2.0029 0.0529,-0.59796 0.0106,-1.11654 -0.15875,-1.42346 -0.09,-0.16404 -0.24606,-0.24341 -0.4789,-0.19314 v 0 c -0.0185,0.003 -0.037,0.005 -0.0556,0.008 -0.18785,0.0212 -0.35719,-0.0714 -0.4445,-0.21961 z"
       id="path1-5"
       style="fill:#ff5733;fill-opacity:1;stroke-width:0.264583" /></g><style
     type="text/css"
     id="style1">.st0{fill-rule:evenodd;clip-rule:evenodd;}</style><style
     type="text/css"
     id="style1-9">.st0{fill-rule:evenodd;clip-rule:evenodd;}</style></svg>
