<?xml version="1.0" encoding="UTF-8" standalone="no"?>


<svg
   width="178.59375mm"
   height="127.90426mm"
   viewBox="0 0 178.59375 127.90426"
   version="1.1"
   id="svg1"
   xml:space="preserve"
   
   
   
   
   xmlns="http://www.w3.org/2000/svg"
   ><defs
     id="defs1" /><g
     
     
     id="layer1"
     transform="translate(-24.680984,-44.911341)"><g
       style="fill:#fa5733;fill-opacity:1"
       id="g1"
       transform="matrix(0.41341146,0,0,0.41341146,8.1445256,4.1437204)"><g
         id="diary_book-book-heart-love-valentine"
         style="fill:#fa5733;fill-opacity:1">&#10;&#10;<path
   d="m 456,168 h -8 V 123.023 C 448,107.996 434.377,96.804 419.891,99.375 L 255.999,127.879 92.172,98.992 C 77.56,96.372 64,107.656 64,122.625 V 168 h -8 c -8.836,0 -16,7.163 -16,16 v 184 c 0,8.836 7.164,16 16,16 h 130.745 c 13.602,0 19.88,6.625 27.882,14.627 6.001,6.001 14.141,9.373 22.627,9.373 13.566,0 23.924,0 37.49,0 8.487,0 16.626,-3.372 22.627,-9.373 8,-8 14.268,-14.627 27.882,-14.627 H 456 c 8.836,0 16,-7.164 16,-16 V 184 c 0,-8.837 -7.164,-16 -16,-16 z m -33.367,-52.859 c 4.748,-0.848 9.367,2.787 9.367,7.883 v 199.109 c 0,3.891 -2.781,7.203 -6.609,7.883 L 264,358.469 V 142.727 Z M 80,122.625 c 0,-4.952 4.446,-8.733 9.391,-7.883 L 248,142.711 V 358.469 L 86.609,330.016 C 82.781,329.336 80,326.024 80,322.133 Z m 208.125,145.102 c -0.773,-4.352 2.133,-8.5 6.484,-9.266 l 104,-18.336 c 4.336,-0.82 8.5,2.133 9.266,6.484 0.773,4.352 -2.133,8.5 -6.484,9.266 l -104,18.336 c -0.469,0.086 -0.938,0.125 -1.398,0.125 -3.813,0 -7.188,-2.727 -7.868,-6.609 z m 0,-40 c -0.773,-4.352 2.133,-8.5 6.484,-9.266 l 104,-18.336 c 4.336,-0.805 8.5,2.133 9.266,6.484 0.773,4.352 -2.133,8.5 -6.484,9.266 l -104,18.336 c -0.469,0.086 -0.938,0.125 -1.398,0.125 -3.813,0 -7.188,-2.727 -7.868,-6.609 z m 0,-40 c -0.773,-4.352 2.133,-8.5 6.484,-9.266 l 104,-18.336 c 4.336,-0.82 8.5,2.133 9.266,6.484 0.773,4.352 -2.133,8.5 -6.484,9.266 l -104,18.336 c -0.469,0.086 -0.938,0.125 -1.398,0.125 -3.813,0 -7.188,-2.727 -7.868,-6.609 z m 0,120 c -0.773,-4.352 2.133,-8.5 6.484,-9.266 l 104,-18.336 c 4.336,-0.805 8.5,2.133 9.266,6.484 0.773,4.352 -2.133,8.5 -6.484,9.266 l -104,18.336 c -0.469,0.086 -0.938,0.125 -1.398,0.125 -3.813,0 -7.188,-2.727 -7.868,-6.609 z M 118.239,218.242 c -11.85,-14.068 -13.889,-33.678 -3.614,-45.243 12.414,-13.972 35.529,-10.978 49.375,5.462 13.847,-11.557 36.961,-6.399 49.375,11.951 10.275,15.188 8.235,34.079 -3.614,43.968 l -32.5,27.125 c -7.318,6.108 -19.204,4.012 -26.522,-4.677 z"
   id="path1"
   style="fill:#fa5733;fill-opacity:1" />&#10;&#10;</g><g
         id="Layer_1"
         style="fill:#fa5733;fill-opacity:1" /></g></g></svg>
