<?xml version="1.0" encoding="UTF-8" standalone="no"?>


<svg
   width="32.512001mm"
   height="24.14588mm"
   viewBox="0 0 32.512001 24.14588"
   version="1.1"
   id="svg1"
   xml:space="preserve"
   
   
   
   
   xmlns="http://www.w3.org/2000/svg"
   ><defs
     id="defs1" /><g
     
     
     id="layer1"
     transform="translate(-88.589018,-136.42706)"><path
       class="st0"
       d="m 90.790352,136.42706 h 28.109338 c 1.21179,0 2.20133,0.98954 2.20133,2.20134 v 19.7432 c 0,1.20915 -0.98954,2.20134 -2.20133,2.20134 H 90.790352 c -1.211792,0 -2.201334,-0.99219 -2.201334,-2.20134 v -19.7432 c 0,-1.2118 0.989542,-2.20134 2.201334,-2.20134 z m 9.360958,17.12913 h -2.883958 l -0.415396,1.35996 h -2.600854 l 3.103562,-8.24442 h 2.788706 l 3.09034,8.24442 h -2.66965 z m -0.537105,-1.78329 -0.899583,-2.96334 -0.904874,2.96334 z m 4.624915,-5.10117 h 4.23863 c 0.92339,0 1.61396,0.2196 2.07433,0.65881 0.45773,0.43921 0.68792,1.06627 0.68792,1.8759 0,0.83343 -0.25136,1.48431 -0.75142,1.95262 -0.50006,0.47096 -1.26735,0.70379 -2.29658,0.70379 h -1.397 v 3.05065 h -2.55588 z m 2.55588,3.5216 h 0.62706 c 0.49477,0 0.84138,-0.0873 1.04246,-0.25664 0.19844,-0.17198 0.29898,-0.38894 0.29898,-0.65617 0,-0.25929 -0.0873,-0.4789 -0.26194,-0.65881 -0.17198,-0.17992 -0.50006,-0.26988 -0.97896,-0.26988 h -0.73025 v 1.8415 z m 6.08806,-3.5216 h 2.55588 v 8.24442 h -2.55588 z m 6.91885,-4.08252 H 89.988664 v 15.99671 c 0,0.16933 0.06615,0.3175 0.177271,0.43127 0.111125,0.11112 0.261938,0.17727 0.431271,0.17727 h 28.585584 c 0.16933,0 0.3175,-0.0661 0.43127,-0.17727 0.11377,-0.11377 0.17727,-0.26194 0.17727,-0.43127 v -15.99671 z m -2.99772,-3.68829 c 0.6006,0 1.08743,0.48683 1.08743,1.08743 0,0.60061 -0.48683,1.08744 -1.08743,1.08744 -0.60061,0 -1.08744,-0.48683 -1.08744,-1.08744 0.003,-0.6006 0.48948,-1.08743 1.08744,-1.08743 z m -7.366,0 c 0.6006,0 1.08743,0.48683 1.08743,1.08743 0,0.60061 -0.48683,1.08744 -1.08743,1.08744 -0.60061,0 -1.08744,-0.48683 -1.08744,-1.08744 0,-0.6006 0.48683,-1.08743 1.08744,-1.08743 z m 3.683,0 c 0.6006,0 1.08743,0.48683 1.08743,1.08743 0,0.60061 -0.48683,1.08744 -1.08743,1.08744 -0.60061,0 -1.08744,-0.48683 -1.08744,-1.08744 0,-0.6006 0.48683,-1.08743 1.08744,-1.08743 z"
       id="path1"
       style="fill:#ff5733;fill-opacity:1;stroke-width:0.264583" /></g><style
     type="text/css"
     id="style1">.st0{fill-rule:evenodd;clip-rule:evenodd;}</style></svg>
